<?xml version="1.0" encoding="UTF-8"?>
<svg version="1.1" viewBox="150 600 1700 507" xmlns="http://www.w3.org/2000/svg">
    <path id="weather" transform="translate(1171,802)" d="m0 0h75l1 1 1 99 13-9 14-7 19-5 8-1h23l18 3 15 6 12 7 12 11 8 10 7 14 4 13 2 8 9-17 12-16 12-12 13-9 16-8 13-5 18-4 8-1h27l19 3 16 5 17 8 13 9 12 11 8 10 8 13 5 10v-64l1-1h73l1 3-1 21 8-7 13-9 15-7 17-4 10-1h11v69h-24l-18 4-10 6-5 4-7 11-4 13-1 7-1 109-3 1h-73l-1-1-1-11v-79h-154l4 10 8 11 10 7 13 5 6 1h27l17-5 10-6 7-6 5 2 23 23 7 8 7 7-1 4-8 8-15 10-15 7-17 5-18 3h-38l-18-3-17-5-16-7-15-9-12-11-9-9-10-15-5-10-1 65-2 1h-75l-1-119-1-11-4-11-6-9-10-6-16-2-13 2-12 6-8 9-4 8-3 10-1 7-1 115-8 1h-68l-2-2-6 1-19 4h-36l-18-4-13-5-11-7-10-9-8-11-5-11-4-14-2-15-5 5-7 11-1 2-1 9-1 45-3 1h-68l-1-1v-22l1-3h-2l-2 4-9 10-11 7-13 5-13 3-22 1-17-2-17-5-13-7-10-8-9-10-6-12-3-10-1-7v-15l3-14 2-5h-148l4 10 8 11 10 7 13 5 5 1h28l15-4 11-6 8-6 5 1 17 17v2l4 2v2h2l14 16-2 4-8 8-17 11-15 6-19 5-13 2h-39l-25-5-17-6-14-7-14-10-9-8-9-11-9-14-6-14-4-14-2-12v-26l2-12-15 43-15 42-17 47-3 4h-73l-5-11-17-50-15-43-5-13-2-1-1 7-15 43-20 55-5 12-1 1h-72l-3-2-19-53-17-47-10-29-30-84v-5h72l9 25 32 95 4 10 2-3 11-33 17-48 13-37 4-9h65l4 8 17 51 14 41 8 24 2 7 3-4 10-28 10-30 15-43 9-25 1-1h67l-1 5-9 27-9 25 7-12 8-10 11-11 14-10 16-8 13-5 18-4 9-1h26l19 3 16 5 17 8 13 9 10 9 10 12 8 14 6 14 4 15 2 21 1 4 14-9 19-7 18-3 10-1 60-1v-7l-5-12-9-8-10-4-10-2h-22l-20 4-19 8-10 5-10-19-10-21-5-10 1-3 19-10 24-8 20-4 18-2h30l17 2 17 4 15 6 12 7 9 7 9 9 1 2v-24l1-1h15v-2l3-1 13 2v-56l1-1h70l7 1v57h49l1 1v56l-26 1h-23v78l3 9 5 6 10 4h9l12-3 4-2h4l3 12h2l1-136v-114zm-475 133-12 3-11 7-7 8-7 14v5h89l-1-7-7-13-6-7-10-6-8-3-5-1zm815 0-12 3-11 7-8 9-5 11-1 7h89l-1-6-4-9-4-6-5-6-10-6-12-4zm-919 8 1 2zm1038 8 1 2zm-1044 9m-1 3 1 2zm321 51-13 2-9 5-4 5-2 6v9l3 7 8 7 8 3 13 1 14-3 11-7 7-9 3-9v-13l-1-4z" fill="#FFFFFF"/>
    <path id="lightning" transform="translate(1037,888)" d="m0 0 4 1 25 1 2 1-1 6-14 38-2 6v5l14-1 11-1h13l-1 7-6 10-9 14-10 15-17 26-5 9-2 7-3-1-7 9-5 9-1 9-1 45-3 1h-68v-1h33l3-13 8-20 5-14 5-12 11-32 1-2v-7h-12l-5 1h-9l-1-1 1-13 7-26 10-39 5-17 3-13 1-2-3-1h7v-2l3-1 13 2z" fill="#FCC01E"/>
</svg>

